<?xml version="1.0" encoding="iso-8859-1"?>
<!-- Uploaded to: SVG Repo, www.svgrepo.com, Generator: SVG Repo Mixer Tools -->
<svg height="800px" width="800px" version="1.1" id="Layer_1" xmlns="http://www.w3.org/2000/svg" xmlns:xlink="http://www.w3.org/1999/xlink" 
	 viewBox="0 0 512 512" xml:space="preserve">
<g transform="translate(1 1)">
	<path style="fill:#FFDD09;" d="M292.547,37.4v17.067h-75.093V37.4H75.8v238.933h358.4V37.4H292.547z"/>
	<path style="fill:#FFFFFF;" d="M50.2,276.333h25.6V37.4H50.2V276.333z"/>
	<path style="fill:#FD9808;" d="M434.2,276.333h25.6V37.4h-25.6V276.333z"/>
	<g>
		<path style="fill:#FFDD09;" d="M7.533,336.067h494.933v-34.133H7.533V336.067z"/>
		<path style="fill:#FFDD09;" d="M169.667,370.2h170.667v-34.133H169.667V370.2z"/>
		<path style="fill:#FFDD09;" d="M330.093,421.4h-29.867c-0.853,0-0.853,0-0.853-0.853L280.6,370.2h34.133l17.92,48.64
			C332.653,419.693,331.8,421.4,330.093,421.4"/>
		<path style="fill:#FFDD09;" d="M171.373,421.4h29.867c0.853,0,0.853,0,0.853-0.853l18.773-50.347h-34.133l-17.92,48.64
			C168.813,419.693,169.667,421.4,171.373,421.4"/>
	</g>
	<path style="fill:#FCC309;" d="M212.333,54.467h85.333V11.8h-85.333V54.467z"/>
	<g>
		<path style="fill:#1CD759;" d="M212.333,233.667H75.8l68.267-110.933L212.333,233.667z"/>
		<path style="fill:#1CD759;" d="M407.747,233.667L365.933,165.4l-41.813,68.267H407.747z"/>
		<path style="fill:#1CD759;" d="M265.24,233.667l-52.907-85.333L185.88,191l26.453,42.667H265.24z"/>
	</g>
	<path d="M331.8,20.333H178.2c-5.12,0-8.533-3.413-8.533-8.533s3.413-8.533,8.533-8.533h153.6c5.12,0,8.533,3.413,8.533,8.533
		S336.92,20.333,331.8,20.333z"/>
	<path style="fill:#1CD759;" d="M75.8,276.333h358.4v-42.667H75.8V276.333z"/>
	<path style="fill:#15A143;" d="M434.2,276.333h25.6v-42.667h-25.6V276.333z"/>
	<path d="M468.333,284.867H41.667v-59.733h426.667V284.867z M58.733,267.8h392.533v-25.6H58.733V267.8z"/>
	<path d="M227.693,242.2H60.44l83.627-135.68L227.693,242.2z M91.16,225.133h105.813l-52.907-86.187L91.16,225.133z"/>
	<path d="M423.107,242.2H308.76l57.173-93.013L423.107,242.2z M339.48,225.133h53.76l-27.307-43.52L339.48,225.133z"/>
	<path d="M400.067,122.733c-8.533,0-16.213-3.413-23.04-8.533c-3.413-3.413-3.413-8.533-0.853-11.947
		c3.413-3.413,8.533-3.413,11.947-0.853s7.68,4.267,11.947,4.267c9.387,0,17.067-7.68,17.067-17.067c0-5.12-1.707-9.387-5.973-12.8
		c-3.413-3.413-3.413-8.533-0.853-11.947c3.413-3.413,8.533-3.413,11.947-0.853c7.68,6.827,11.947,16.213,11.947,25.6
		C434.2,107.373,418.84,122.733,400.067,122.733z"/>
	<path d="M279.747,242.2h-72.533L175.64,191l36.693-58.88L279.747,242.2z M217.453,225.133h32.427l-37.547-60.587L196.12,191
		L217.453,225.133z"/>
	<path d="M92.867,114.2l-8.533-17.067L67.267,88.6l17.067-8.533L92.867,63l8.533,17.067l17.067,8.533L101.4,97.133L92.867,114.2z"/>
	<path d="M289.133,156.867L280.6,139.8l-17.067-8.533l17.067-8.533l8.533-17.067l8.533,17.067l17.067,8.533l-17.067,8.533
		L289.133,156.867z"/>
	<path d="M511,344.6H-1v-51.2h512V344.6z M16.067,327.533h477.867v-17.067H16.067V327.533z"/>
	<path d="M348.867,378.733H161.133v-51.2h187.733V378.733z M178.2,361.667h153.6V344.6H178.2V361.667z"/>
	<path d="M330.093,429.933h-29.867c-4.267,0-7.68-2.56-9.387-6.827l-22.187-61.44h52.053l19.627,53.76
		c0.853,3.413,0.853,6.827-1.707,9.387C336.92,428.227,333.507,429.933,330.093,429.933z M307.053,417.133L307.053,417.133
		L307.053,417.133z M305.347,412.867h16.213l-12.8-34.133h-16.213L305.347,412.867z"/>
	<path d="M340.333,506.733c-3.413,0-6.827-2.56-8.533-5.973l-23.893-76.8c-1.707-4.267,0.853-9.387,5.973-11.093
		c4.267-1.707,9.387,0.853,11.093,5.973l23.893,76.8c1.707,4.267-0.853,9.387-5.973,11.093
		C342.04,506.733,341.187,506.733,340.333,506.733z"/>
	<path d="M201.24,429.933h-29.867c-3.413,0-6.827-1.707-8.533-4.267c-1.707-2.56-2.56-6.827-0.853-9.387l19.627-53.76h52.053
		l-22.187,61.44C208.92,427.373,205.507,429.933,201.24,429.933z M177.347,421.4L177.347,421.4L177.347,421.4z M194.413,417.133
		C194.413,417.987,194.413,417.987,194.413,417.133L194.413,417.133z M179.907,412.867h16.213l12.8-34.133h-16.213L179.907,412.867z
		"/>
	<path d="M161.133,506.733c-0.853,0-1.707,0-2.56,0c-4.267-1.707-6.827-5.973-5.973-11.093l23.893-76.8
		c1.707-4.267,5.973-6.827,11.093-5.973c4.267,1.707,6.827,5.973,5.973,11.093l-23.893,76.8
		C167.96,504.173,164.547,506.733,161.133,506.733z"/>
	<path d="M306.2,63H203.8V3.267h102.4V63z M220.867,45.933h68.267v-25.6h-68.267V45.933z"/>
	<path d="M468.333,284.867H41.667v-256h179.2v17.067h68.267V28.867h179.2V284.867z M58.733,267.8h392.533V45.933H306.2V63H203.8
		V45.933H58.733V267.8z"/>
</g>
</svg>